<svg width="1449" height="193" viewBox="0 0 1449 193" fill="none" xmlns="http://www.w3.org/2000/svg">
<g filter="url(#filter0_d_166_216)">
<path d="M4 34.3918L52.4967 24.2607C128.859 8.30837 207.894 10.4452 283.283 30.5005L320.548 40.4139C387.762 58.2945 458.671 56.7239 525.027 35.8848C592.369 14.7363 664.378 13.4391 732.438 32.1487L782.523 45.9168C835.204 60.3989 889.903 66.1486 944.445 62.9371L1032.24 57.7675C1063.51 55.9266 1094.53 51.1521 1124.9 43.5072L1159.65 34.7617C1241.16 14.2447 1326.53 14.6069 1407.86 35.8149L1445 45.5V154.514L4 159V34.3918Z" fill="url(#paint0_linear_166_216)" fill-opacity="0.5"/>
<path d="M4 73.5L102.068 48.6767C161.836 33.5481 224.702 36.0041 283.108 55.7495L312.987 65.8509C365.777 83.6977 423.198 82.1549 474.953 61.4993C527.463 40.5421 585.779 39.2695 639.154 57.9161L657.598 64.3594C711.542 83.2047 770.342 82.8158 824.032 63.2586C870.989 46.1539 922.023 43.6563 970.426 56.0941L998.441 63.293C1057.18 78.3857 1119.16 74.7349 1175.72 52.8516C1226.15 33.3378 1281.02 28.276 1334.18 38.235L1445 59V185H4V73.5Z" fill="url(#paint1_linear_166_216)"/>
<path d="M4 37L102.095 57.3927C163.378 70.1327 226.706 69.3158 287.641 54.9993C338.291 43.0989 390.684 40.5063 442.262 47.3479L481.137 52.5046C525.76 58.4235 570.977 58.2897 615.564 52.1066L641.742 48.4764C696.492 40.8839 752.149 42.9213 806.197 54.4967C872.383 68.6712 940.836 68.5139 1006.96 54.0352L1008.87 53.6153C1059.14 42.6091 1110.83 39.6995 1162.01 44.9966L1213.04 50.2782C1247.17 53.8108 1281.58 53.8205 1315.71 50.3074L1445 37V185H4V37Z" fill="url(#paint2_linear_166_216)" fill-opacity="0.8"/>
</g>
<defs>
<filter id="filter0_d_166_216" x="0" y="13.6951" width="1449" height="179.305" filterUnits="userSpaceOnUse" color-interpolation-filters="sRGB">
<feFlood flood-opacity="0" result="BackgroundImageFix"/>
<feColorMatrix in="SourceAlpha" type="matrix" values="0 0 0 0 0 0 0 0 0 0 0 0 0 0 0 0 0 0 127 0" result="hardAlpha"/>
<feOffset dy="4"/>
<feGaussianBlur stdDeviation="2"/>
<feComposite in2="hardAlpha" operator="out"/>
<feColorMatrix type="matrix" values="0 0 0 0 0 0 0 0 0 0 0 0 0 0 0 0 0 0 0.25 0"/>
<feBlend mode="normal" in2="BackgroundImageFix" result="effect1_dropShadow_166_216"/>
<feBlend mode="normal" in="SourceGraphic" in2="effect1_dropShadow_166_216" result="shape"/>
</filter>
<linearGradient id="paint0_linear_166_216" x1="-71.6049" y1="78.2539" x2="1753.93" y2="78.2539" gradientUnits="userSpaceOnUse">
<stop stop-color="#0052D4"/>
<stop offset="0.5" stop-color="#4364F7"/>
<stop offset="1" stop-color="#6FB1FC"/>
</linearGradient>
<linearGradient id="paint1_linear_166_216" x1="4" y1="104" x2="1445" y2="104" gradientUnits="userSpaceOnUse">
<stop stop-color="#0052D4"/>
<stop offset="0.5" stop-color="#4364F7"/>
<stop offset="1" stop-color="#6FB1FC"/>
</linearGradient>
<linearGradient id="paint2_linear_166_216" x1="4" y1="111" x2="1445" y2="111" gradientUnits="userSpaceOnUse">
<stop stop-color="#0052D4"/>
<stop offset="0.5" stop-color="#4364F7"/>
<stop offset="1" stop-color="#6FB1FC"/>
</linearGradient>
</defs>
</svg>
