<svg xmlns="http://www.w3.org/2000/svg" width="1441" height="148" viewBox="0 0 1441 148" fill="none">
  <path d="M0 0L98.095 20.3927C159.378 33.1327 222.706 32.3158 283.641 17.9993C334.291 6.09895 386.684 3.50632 438.262 10.3479L477.137 15.5046C521.76 21.4235 566.977 21.2897 611.564 15.1066L637.742 11.4764C692.492 3.88394 748.149 5.92135 802.197 17.4967C868.383 31.6712 936.836 31.5139 1002.96 17.0352L1004.87 16.6153C1055.14 5.60906 1106.83 2.69954 1158.01 7.99664L1209.04 13.2782C1243.17 16.8108 1277.58 16.8205 1311.71 13.3074L1441 0V148H0V0Z" fill="url(#paint0_linear_166_208)" fill-opacity="0.8"/>
  <defs>
    <linearGradient id="paint0_linear_166_208" x1="0" y1="74" x2="1441" y2="74" gradientUnits="userSpaceOnUse">
      <stop stop-color="#0052D4"/>
      <stop offset="0.5" stop-color="#4364F7"/>
      <stop offset="1" stop-color="#6FB1FC"/>
    </linearGradient>
  </defs>
</svg>