<svg width="374" height="132" viewBox="0 0 374 132" fill="none" xmlns="http://www.w3.org/2000/svg">
<path d="M84.82 53.0364C84.82 55.4764 84.26 57.7164 83.14 59.7564C82.02 61.7564 80.3 63.3764 77.98 64.6164C75.66 65.8564 72.78 66.4764 69.34 66.4764H62.98V81.5964H52.72V39.4764H69.34C72.7 39.4764 75.54 40.0564 77.86 41.2164C80.18 42.3764 81.92 43.9764 83.08 46.0164C84.24 48.0564 84.82 50.3964 84.82 53.0364ZM68.56 58.3164C70.52 58.3164 71.98 57.8564 72.94 56.9364C73.9 56.0164 74.38 54.7164 74.38 53.0364C74.38 51.3564 73.9 50.0564 72.94 49.1364C71.98 48.2164 70.52 47.7564 68.56 47.7564H62.98V58.3164H68.56ZM100.621 53.6964C101.821 51.8564 103.321 50.4164 105.121 49.3764C106.921 48.2964 108.921 47.7564 111.121 47.7564V58.6164H108.301C105.741 58.6164 103.821 59.1764 102.541 60.2964C101.261 61.3764 100.621 63.2964 100.621 66.0564V81.5964H90.3614V48.1164H100.621V53.6964ZM131.465 82.0764C128.185 82.0764 125.225 81.3764 122.585 79.9764C119.985 78.5764 117.925 76.5764 116.405 73.9764C114.925 71.3764 114.185 68.3364 114.185 64.8564C114.185 61.4164 114.945 58.3964 116.465 55.7964C117.985 53.1564 120.065 51.1364 122.705 49.7364C125.345 48.3364 128.305 47.6364 131.585 47.6364C134.865 47.6364 137.825 48.3364 140.465 49.7364C143.105 51.1364 145.185 53.1564 146.705 55.7964C148.225 58.3964 148.985 61.4164 148.985 64.8564C148.985 68.2964 148.205 71.3364 146.645 73.9764C145.125 76.5764 143.025 78.5764 140.345 79.9764C137.705 81.3764 134.745 82.0764 131.465 82.0764ZM131.465 73.1964C133.425 73.1964 135.085 72.4764 136.445 71.0364C137.845 69.5964 138.545 67.5364 138.545 64.8564C138.545 62.1764 137.865 60.1164 136.505 58.6764C135.185 57.2364 133.545 56.5164 131.585 56.5164C129.585 56.5164 127.925 57.2364 126.605 58.6764C125.285 60.0764 124.625 62.1364 124.625 64.8564C124.625 67.5364 125.265 69.5964 126.545 71.0364C127.865 72.4764 129.505 73.1964 131.465 73.1964ZM152.589 64.7964C152.589 61.3564 153.229 58.3364 154.509 55.7364C155.829 53.1364 157.609 51.1364 159.849 49.7364C162.089 48.3364 164.589 47.6364 167.349 47.6364C169.549 47.6364 171.549 48.0964 173.349 49.0164C175.189 49.9364 176.629 51.1764 177.669 52.7364V37.1964H187.929V81.5964H177.669V76.7964C176.709 78.3964 175.329 79.6764 173.529 80.6364C171.769 81.5964 169.709 82.0764 167.349 82.0764C164.589 82.0764 162.089 81.3764 159.849 79.9764C157.609 78.5364 155.829 76.5164 154.509 73.9164C153.229 71.2764 152.589 68.2364 152.589 64.7964ZM177.669 64.8564C177.669 62.2964 176.949 60.2764 175.509 58.7964C174.109 57.3164 172.389 56.5764 170.349 56.5764C168.309 56.5764 166.569 57.3164 165.129 58.7964C163.729 60.2364 163.029 62.2364 163.029 64.7964C163.029 67.3564 163.729 69.3964 165.129 70.9164C166.569 72.3964 168.309 73.1364 170.349 73.1364C172.389 73.1364 174.109 72.3964 175.509 70.9164C176.949 69.4364 177.669 67.4164 177.669 64.8564ZM228.611 48.1164V81.5964H218.351V77.0364C217.311 78.5164 215.891 79.7164 214.091 80.6364C212.331 81.5164 210.371 81.9564 208.211 81.9564C205.651 81.9564 203.391 81.3964 201.431 80.2764C199.471 79.1164 197.951 77.4564 196.871 75.2964C195.791 73.1364 195.251 70.5964 195.251 67.6764V48.1164H205.451V66.2964C205.451 68.5364 206.031 70.2764 207.191 71.5164C208.351 72.7564 209.911 73.3764 211.871 73.3764C213.871 73.3764 215.451 72.7564 216.611 71.5164C217.771 70.2764 218.351 68.5364 218.351 66.2964V48.1164H228.611ZM241.341 44.6364C239.541 44.6364 238.061 44.1164 236.901 43.0764C235.781 41.9964 235.221 40.6764 235.221 39.1164C235.221 37.5164 235.781 36.1964 236.901 35.1564C238.061 34.0764 239.541 33.5364 241.341 33.5364C243.101 33.5364 244.541 34.0764 245.661 35.1564C246.821 36.1964 247.401 37.5164 247.401 39.1164C247.401 40.6764 246.821 41.9964 245.661 43.0764C244.541 44.1164 243.101 44.6364 241.341 44.6364ZM246.441 48.1164V81.5964H236.181V48.1164H246.441ZM272.736 72.8964V81.5964H267.516C263.796 81.5964 260.896 80.6964 258.816 78.8964C256.736 77.0564 255.696 74.0764 255.696 69.9564V56.6364H251.616V48.1164H255.696V39.9564H265.956V48.1164H272.676V56.6364H265.956V70.0764C265.956 71.0764 266.196 71.7964 266.676 72.2364C267.156 72.6764 267.956 72.8964 269.076 72.8964H272.736ZM292.271 82.0764C289.351 82.0764 286.751 81.5764 284.471 80.5764C282.191 79.5764 280.391 78.2164 279.071 76.4964C277.751 74.7364 277.011 72.7764 276.851 70.6164H286.991C287.111 71.7764 287.651 72.7164 288.611 73.4364C289.571 74.1564 290.751 74.5164 292.151 74.5164C293.431 74.5164 294.411 74.2764 295.091 73.7964C295.811 73.2764 296.171 72.6164 296.171 71.8164C296.171 70.8564 295.671 70.1564 294.671 69.7164C293.671 69.2364 292.051 68.7164 289.811 68.1564C287.411 67.5964 285.411 67.0164 283.811 66.4164C282.211 65.7764 280.831 64.7964 279.671 63.4764C278.511 62.1164 277.931 60.2964 277.931 58.0164C277.931 56.0964 278.451 54.3564 279.491 52.7964C280.571 51.1964 282.131 49.9364 284.171 49.0164C286.251 48.0964 288.711 47.6364 291.551 47.6364C295.751 47.6364 299.051 48.6764 301.451 50.7564C303.891 52.8364 305.291 55.5964 305.651 59.0364H296.171C296.011 57.8764 295.491 56.9564 294.611 56.2764C293.771 55.5964 292.651 55.2564 291.251 55.2564C290.051 55.2564 289.131 55.4964 288.491 55.9764C287.851 56.4164 287.531 57.0364 287.531 57.8364C287.531 58.7964 288.031 59.5164 289.031 59.9964C290.071 60.4764 291.671 60.9564 293.831 61.4364C296.311 62.0764 298.331 62.7164 299.891 63.3564C301.451 63.9564 302.811 64.9564 303.971 66.3564C305.171 67.7164 305.791 69.5564 305.831 71.8764C305.831 73.8364 305.271 75.5964 304.151 77.1564C303.071 78.6764 301.491 79.8764 299.411 80.7564C297.371 81.6364 294.991 82.0764 292.271 82.0764Z" fill="#41BBEC"/>
<rect x="15" y="15" width="346" height="101" stroke="#41BBEC" stroke-width="8"/>
<circle cx="14" cy="118" r="10" fill="white" stroke="#41BBEC" stroke-width="8"/>
<circle cx="360" cy="118" r="10" fill="white" stroke="#41BBEC" stroke-width="8"/>
<circle cx="14" cy="14" r="10" fill="white" stroke="#41BBEC" stroke-width="8"/>
<circle cx="360" cy="14" r="10" fill="white" stroke="#41BBEC" stroke-width="8"/>
</svg>
