<svg xmlns="http://www.w3.org/2000/svg" width="21" height="18" viewBox="0 0 21 18" fill="none">
  <path d="M20.92 2.47498C20.15 2.82498 19.32 3.05498 18.46 3.16498C19.34 2.63498 20.02 1.79498 20.34 0.784976C19.51 1.28498 18.59 1.63498 17.62 1.83498C16.83 0.974976 15.72 0.474976 14.46 0.474976C12.11 0.474976 10.19 2.39498 10.19 4.76498C10.19 5.10498 10.23 5.43498 10.3 5.74498C6.74 5.56498 3.57 3.85498 1.46 1.26498C1.09 1.89498 0.88 2.63498 0.88 3.41498C0.88 4.90498 1.63 6.22498 2.79 6.97498C2.08 6.97498 1.42 6.77498 0.84 6.47498V6.50498C0.84 8.58498 2.32 10.325 4.28 10.715C3.65073 10.8872 2.9901 10.9111 2.35 10.785C2.62161 11.6375 3.15354 12.3834 3.87102 12.9179C4.5885 13.4524 5.45545 13.7487 6.35 13.765C4.83363 14.9654 2.954 15.6143 1.02 15.605C0.68 15.605 0.34 15.585 0 15.545C1.9 16.765 4.16 17.475 6.58 17.475C14.46 17.475 18.79 10.935 18.79 5.26498C18.79 5.07498 18.79 4.89498 18.78 4.70498C19.62 4.10498 20.34 3.34498 20.92 2.47498Z" fill="white"/>
</svg>
